<svg xmlns="http://www.w3.org/2000/svg" viewBox="0 0 800 450" width="800" height="450">
  <rect width="800" height="450" fill="#0a0e12"/>
  <g stroke="#a855f7" stroke-opacity="0.1" stroke-width="1">
    <line x1="0" y1="0" x2="800" y2="450"/>
    <line x1="0" y1="50" x2="750" y2="450"/>
    <line x1="0" y1="100" x2="700" y2="450"/>
    <line x1="0" y1="150" x2="650" y2="450"/>
    <line x1="0" y1="200" x2="600" y2="450"/>
    <line x1="0" y1="250" x2="550" y2="450"/>
    <line x1="0" y1="300" x2="500" y2="450"/>
    <line x1="0" y1="350" x2="450" y2="450"/>
  </g>
  <g stroke="#ff574d" stroke-opacity="0.06" stroke-width="0.6">
    <line x1="0" y1="25" x2="775" y2="450"/>
    <line x1="0" y1="75" x2="725" y2="450"/>
    <line x1="0" y1="125" x2="675" y2="450"/>
    <line x1="0" y1="175" x2="625" y2="450"/>
    <line x1="0" y1="225" x2="575" y2="450"/>
    <line x1="0" y1="275" x2="525" y2="450"/>
    <line x1="0" y1="325" x2="475" y2="450"/>
  </g>
  <g fill="none" stroke="#a855f7" stroke-opacity="0.12" stroke-width="1.5">
    <ellipse cx="400" cy="225" rx="120" ry="50"/>
    <ellipse cx="400" cy="225" rx="90" ry="35"/>
    <ellipse cx="400" cy="225" rx="60" ry="20"/>
  </g>
  <circle cx="400" cy="225" r="8" fill="#a855f7" opacity="0.1"/>
  <circle cx="400" cy="225" r="4" fill="#ff574d" opacity="0.08"/>
  <g stroke="#ff574d" stroke-opacity="0.05" stroke-width="0.5">
    <line x1="0" y1="100" x2="800" y2="100"/>
    <line x1="0" y1="350" x2="800" y2="350"/>
  </g>
  <text x="40" y="430" font-family="sans-serif" font-size="14" fill="#a855f7" opacity="0.4">VOID TUNNEL — HYPERSPACE ENTRY</text>
</svg>