<svg xmlns="http://www.w3.org/2000/svg" viewBox="0 0 800 450" width="800" height="450">
  <rect width="800" height="450" fill="#0a0e12"/>
  <g stroke="#a855f7" stroke-opacity="0.08" stroke-width="0.8">
    <line x1="0" y1="0" x2="500" y2="450"/>
    <line x1="0" y1="100" x2="600" y2="450"/>
    <line x1="0" y1="200" x2="700" y2="450"/>
    <line x1="0" y1="300" x2="800" y2="450"/>
  </g>
  <g stroke="#ff574d" stroke-opacity="0.05" stroke-width="0.6">
    <line x1="0" y1="50" x2="450" y2="450"/>
    <line x1="0" y1="150" x2="550" y2="450"/>
    <line x1="0" y1="250" x2="650" y2="450"/>
    <line x1="0" y1="350" x2="750" y2="450"/>
  </g>
  <g fill="#a855f7" opacity="0.06">
    <rect x="100" y="80" width="60" height="40" rx="2"/>
    <rect x="180" y="80" width="60" height="40" rx="2"/>
    <rect x="260" y="80" width="60" height="40" rx="2"/>
    <rect x="340" y="80" width="60" height="40" rx="2"/>
  </g>
  <g fill="#ff574d" opacity="0.04">
    <rect x="420" y="80" width="60" height="40" rx="2"/>
    <rect x="500" y="80" width="60" height="40" rx="2"/>
    <rect x="580" y="80" width="60" height="40" rx="2"/>
  </g>
  <g fill="none" stroke="#a855f7" stroke-opacity="0.1" stroke-width="0.5">
    <rect x="100" y="80" width="60" height="40" rx="2"/>
    <rect x="180" y="80" width="60" height="40" rx="2"/>
    <rect x="260" y="80" width="60" height="40" rx="2"/>
    <rect x="340" y="80" width="60" height="40" rx="2"/>
    <rect x="420" y="80" width="60" height="40" rx="2"/>
    <rect x="500" y="80" width="60" height="40" rx="2"/>
    <rect x="580" y="80" width="60" height="40" rx="2"/>
  </g>
  <g fill="none" stroke="#ff574d" stroke-opacity="0.06" stroke-width="0.5">
    <rect x="100" y="200" width="60" height="40" rx="2"/>
    <rect x="180" y="200" width="60" height="40" rx="2"/>
    <rect x="260" y="200" width="60" height="40" rx="2"/>
    <rect x="340" y="200" width="60" height="40" rx="2"/>
  </g>
  <g fill="#ff574d" opacity="0.04">
    <rect x="420" y="200" width="60" height="40" rx="2"/>
    <rect x="500" y="200" width="60" height="40" rx="2"/>
  </g>
  <text x="40" y="430" font-family="sans-serif" font-size="14" fill="#a855f7" opacity="0.4">NEBULA SPEEDWAY — LAP 1 QUALIFYING</text>
</svg>