<svg xmlns="http://www.w3.org/2000/svg" viewBox="0 0 800 450" width="800" height="450">
  <rect width="800" height="450" fill="#0a0e12"/>
  <g stroke="#a855f7" stroke-opacity="0.1" stroke-width="1">
    <line x1="0" y1="0" x2="600" y2="450"/>
    <line x1="0" y1="50" x2="650" y2="450"/>
    <line x1="0" y1="100" x2="700" y2="450"/>
    <line x1="0" y1="150" x2="750" y2="450"/>
  </g>
  <g stroke="#ff574d" stroke-opacity="0.06" stroke-width="0.8">
    <line x1="0" y1="80" x2="550" y2="450"/>
    <line x1="0" y1="180" x2="650" y2="450"/>
    <line x1="0" y1="280" x2="750" y2="450"/>
  </g>
  <g stroke="#a855f7" stroke-opacity="0.05" stroke-width="0.5">
    <line x1="0" y1="75" x2="800" y2="75"/>
    <line x1="0" y1="150" x2="800" y2="150"/>
    <line x1="0" y1="225" x2="800" y2="225"/>
    <line x1="0" y1="300" x2="800" y2="300"/>
    <line x1="0" y1="375" x2="800" y2="375"/>
  </g>
  <ellipse cx="550" cy="200" rx="80" ry="40" fill="none" stroke="#a855f7" stroke-opacity="0.08" stroke-width="1"/>
  <ellipse cx="550" cy="200" rx="50" ry="25" fill="none" stroke="#ff574d" stroke-opacity="0.06" stroke-width="0.8"/>
  <circle cx="550" cy="200" r="10" fill="#a855f7" opacity="0.06"/>
  <polygon points="370,185 370,215 400,200" fill="#a855f7" opacity="0.2"/>
  <circle cx="400" cy="200" r="25" fill="none" stroke="white" stroke-opacity="0.1" stroke-width="1"/>
  <text x="40" y="420" font-family="sans-serif" font-size="42" font-weight="bold" fill="#a855f7" opacity="0.85">VOID RUNNER</text>
  <text x="40" y="440" font-family="sans-serif" font-size="13" fill="#a855f7" opacity="0.4">GAMEPLAY TRAILER</text>
</svg>