<svg xmlns="http://www.w3.org/2000/svg" viewBox="0 0 1200 600" width="1200" height="600">
  <defs>
    <linearGradient id="nw-bg" x1="0" y1="0" x2="0" y2="1">
      <stop offset="0%" stop-color="#05080c"/>
      <stop offset="100%" stop-color="#0a0e12"/>
    </linearGradient>
    <linearGradient id="nw-glow" x1="0" y1="0" x2="0" y2="1">
      <stop offset="0%" stop-color="#3ee7ff" stop-opacity="0.15"/>
      <stop offset="100%" stop-color="#3ee7ff" stop-opacity="0"/>
    </linearGradient>
    <linearGradient id="nw-neon" x1="0" y1="0" x2="1" y2="1">
      <stop offset="0%" stop-color="#3ee7ff"/>
      <stop offset="100%" stop-color="#ff574d"/>
    </linearGradient>
  </defs>
  <rect width="1200" height="600" fill="url(#nw-bg)"/>
  <rect width="1200" height="600" fill="url(#nw-glow)"/>
  <line x1="0" y1="0" x2="1200" y2="600" stroke="#3ee7ff" stroke-opacity="0.05" stroke-width="1"/>
  <line x1="200" y1="0" x2="1200" y2="400" stroke="#3ee7ff" stroke-opacity="0.05" stroke-width="1"/>
  <line x1="400" y1="0" x2="1200" y2="200" stroke="#3ee7ff" stroke-opacity="0.05" stroke-width="1"/>
  <line x1="600" y1="0" x2="1200" y2="0" stroke="#3ee7ff" stroke-opacity="0.05" stroke-width="1"/>
  <line x1="0" y1="200" x2="800" y2="600" stroke="#3ee7ff" stroke-opacity="0.05" stroke-width="1"/>
  <line x1="0" y1="400" x2="400" y2="600" stroke="#3ee7ff" stroke-opacity="0.05" stroke-width="1"/>
  <rect x="0" y="550" width="1200" height="50" fill="#05080c" opacity="0.8"/>
  <g stroke="#3ee7ff" stroke-opacity="0.3" stroke-width="1" fill="none">
    <rect x="100" y="100" width="60" height="60" rx="2"/>
    <rect x="180" y="100" width="60" height="60" rx="2"/>
    <rect x="260" y="100" width="60" height="60" rx="2"/>
    <rect x="100" y="180" width="60" height="60" rx="2"/>
    <rect x="180" y="180" width="60" height="60" rx="2"/>
    <rect x="260" y="180" width="60" height="60" rx="2"/>
    <rect x="100" y="260" width="60" height="60" rx="2"/>
    <rect x="180" y="260" width="60" height="60" rx="2"/>
    <rect x="260" y="260" width="60" height="60" rx="2"/>
  </g>
  <g fill="#ff574d" opacity="0.4">
    <circle cx="200" cy="200" r="3"/>
    <circle cx="500" cy="150" r="2"/>
    <circle cx="800" cy="300" r="3"/>
    <circle cx="350" cy="400" r="2"/>
    <circle cx="700" cy="450" r="2.5"/>
    <circle cx="900" cy="200" r="2"/>
  </g>
  <polygon points="700,600 900,600 1050,350 800,350" fill="#ff574d" opacity="0.08"/>
  <polygon points="750,600 900,600 1000,400 850,400" fill="#3ee7ff" opacity="0.06"/>
  <g stroke="#3ee7ff" stroke-opacity="0.15" stroke-width="1">
    <line x1="0" y1="100" x2="1200" y2="100"/>
    <line x1="0" y1="200" x2="1200" y2="200"/>
    <line x1="0" y1="300" x2="1200" y2="300"/>
    <line x1="0" y1="400" x2="1200" y2="400"/>
    <line x1="0" y1="500" x2="1200" y2="500"/>
  </g>
  <g stroke="#3ee7ff" stroke-opacity="0.1" stroke-width="1">
    <line x1="200" y1="0" x2="200" y2="600"/>
    <line x1="400" y1="0" x2="400" y2="600"/>
    <line x1="600" y1="0" x2="600" y2="600"/>
    <line x1="800" y1="0" x2="800" y2="600"/>
    <line x1="1000" y1="0" x2="1000" y2="600"/>
  </g>
  <text x="60" y="480" font-family="monospace" font-size="72" font-weight="bold" fill="#3ee7ff" opacity="0.9">NEON</text>
  <text x="60" y="545" font-family="monospace" font-size="72" font-weight="bold" fill="#ff574d" opacity="0.9">WARDEN</text>
  <text x="60" y="580" font-family="monospace" font-size="14" fill="#3ee7ff" opacity="0.5">CYBERPUNK TACTICAL SHOOTER</text>
  <circle cx="1140" cy="60" r="30" fill="none" stroke="#3ee7ff" stroke-opacity="0.3" stroke-width="1"/>
  <circle cx="1140" cy="60" r="15" fill="none" stroke="#ff574d" stroke-opacity="0.3" stroke-width="1"/>
  <circle cx="1140" cy="60" r="4" fill="#3ee7ff" opacity="0.5"/>
  <circle cx="60" cy="60" r="2" fill="#3ee7ff" opacity="0.5"/>
  <circle cx="70" cy="55" r="2" fill="#ff574d" opacity="0.5"/>
  <circle cx="65" cy="70" r="2" fill="#3ee7ff" opacity="0.5"/>
</svg>