<svg xmlns="http://www.w3.org/2000/svg" viewBox="0 0 800 450" width="800" height="450">
  <defs>
    <linearGradient id="nws2-bg" x1="0" y1="0" x2="1" y2="1">
      <stop offset="0%" stop-color="#05080c"/>
      <stop offset="100%" stop-color="#0d1114"/>
    </linearGradient>
  </defs>
  <rect width="800" height="450" fill="url(#nws2-bg)"/>
  <g stroke="#3ee7ff" stroke-opacity="0.1" stroke-width="0.5">
    <line x1="0" y1="0" x2="800" y2="450"/>
    <line x1="0" y1="50" x2="750" y2="450"/>
    <line x1="0" y1="100" x2="700" y2="450"/>
    <line x1="0" y1="150" x2="650" y2="450"/>
    <line x1="0" y1="200" x2="600" y2="450"/>
    <line x1="0" y1="250" x2="550" y2="450"/>
    <line x1="0" y1="300" x2="500" y2="450"/>
  </g>
  <rect x="50" y="50" width="700" height="350" rx="8" fill="none" stroke="#3ee7ff" stroke-opacity="0.12" stroke-width="1"/>
  <g fill="none" stroke="#3ee7ff" stroke-opacity="0.2" stroke-width="1">
    <rect x="80" y="80" width="120" height="80" rx="4"/>
    <rect x="220" y="80" width="120" height="80" rx="4"/>
    <rect x="360" y="80" width="120" height="80" rx="4"/>
    <rect x="80" y="180" width="120" height="80" rx="4"/>
    <rect x="220" y="180" width="120" height="80" rx="4"/>
    <rect x="360" y="180" width="120" height="80" rx="4"/>
  </g>
  <g fill="#3ee7ff" opacity="0.15">
    <rect x="80" y="80" width="120" height="4"/>
    <rect x="220" y="80" width="120" height="4"/>
    <rect x="360" y="80" width="120" height="4"/>
    <rect x="80" y="180" width="120" height="4"/>
    <rect x="220" y="180" width="120" height="4"/>
    <rect x="360" y="180" width="120" height="4"/>
  </g>
  <g fill="#ff574d" opacity="0.5">
    <circle cx="140" cy="120" r="4"/>
    <circle cx="280" cy="140" r="4"/>
    <circle cx="420" cy="110" r="4"/>
    <circle cx="140" cy="220" r="4"/>
    <circle cx="280" cy="250" r="4"/>
    <circle cx="420" cy="210" r="4"/>
  </g>
  <line x1="140" y1="120" x2="200" y2="160" stroke="#ff574d" stroke-opacity="0.4" stroke-width="1.5"/>
  <line x1="280" y1="140" x2="340" y2="160" stroke="#ff574d" stroke-opacity="0.4" stroke-width="1.5"/>
  <line x1="420" y1="110" x2="480" y2="160" stroke="#ff574d" stroke-opacity="0.4" stroke-width="1.5"/>
  <line x1="140" y1="220" x2="200" y2="260" stroke="#ff574d" stroke-opacity="0.4" stroke-width="1.5"/>
  <line x1="280" y1="250" x2="340" y2="260" stroke="#ff574d" stroke-opacity="0.4" stroke-width="1.5"/>
  <circle cx="200" cy="160" r="4" fill="#ff574d" opacity="0.3"/>
  <circle cx="340" cy="160" r="4" fill="#ff574d" opacity="0.3"/>
  <circle cx="480" cy="160" r="4" fill="#ff574d" opacity="0.3"/>
  <circle cx="200" cy="260" r="4" fill="#ff574d" opacity="0.3"/>
  <circle cx="340" cy="260" r="4" fill="#ff574d" opacity="0.3"/>
  <path d="M550,350 L580,280 L640,280 L610,350 Z" fill="#ff574d" opacity="0.08"/>
  <path d="M550,350 L580,280 L640,280" fill="none" stroke="#ff574d" stroke-opacity="0.3" stroke-width="1"/>
  <line x1="580" y1="280" x2="580" y2="250" stroke="#3ee7ff" stroke-opacity="0.3" stroke-width="1"/>
  <line x1="640" y1="280" x2="640" y2="250" stroke="#3ee7ff" stroke-opacity="0.3" stroke-width="1"/>
  <line x1="580" y1="250" x2="640" y2="250" stroke="#3ee7ff" stroke-opacity="0.3" stroke-width="1"/>
  <text x="40" y="430" font-family="monospace" font-size="14" fill="#3ee7ff" opacity="0.4">CYBER LINK — DATA NODE MAP</text>
</svg>