<svg xmlns="http://www.w3.org/2000/svg" viewBox="0 0 800 450" width="800" height="450">
  <defs>
    <radialGradient id="sf-s4-a" cx="0.5" cy="0.5" r="0.5">
      <stop offset="0%" stop-color="#8b5cf6" stop-opacity="0.1"/>
      <stop offset="100%" stop-color="#0a0e12" stop-opacity="0"/>
    </radialGradient>
  </defs>
  <rect width="800" height="450" fill="#0a0e12"/>
  <rect width="800" height="450" fill="url(#sf-s4-a)"/>
  <g fill="white" opacity="0.6">
    <circle cx="60" cy="50" r="1"/><circle cx="180" cy="30" r="1.5"/>
    <circle cx="340" cy="70" r="1"/><circle cx="490" cy="40" r="1"/>
    <circle cx="640" cy="60" r="1.5"/><circle cx="760" cy="30" r="1"/>
    <circle cx="90" cy="180" r="1"/><circle cx="240" cy="220" r="1"/>
    <circle cx="420" cy="190" r="1.5"/><circle cx="580" cy="210" r="1"/>
    <circle cx="710" cy="170" r="1"/><circle cx="130" cy="350" r="1.5"/>
    <circle cx="310" cy="390" r="1"/><circle cx="470" cy="370" r="1"/>
    <circle cx="600" cy="410" r="1"/><circle cx="750" cy="380" r="1.5"/>
  </g>
  <circle cx="400" cy="300" r="140" fill="none" stroke="#4a6cf7" stroke-opacity="0.08" stroke-width="1.5"/>
  <circle cx="400" cy="300" r="120" fill="none" stroke="#8b5cf6" stroke-opacity="0.06" stroke-width="1"/>
  <ellipse cx="400" cy="300" rx="160" ry="25" fill="none" stroke="#4a6cf7" stroke-opacity="0.15" stroke-width="1.5"/>
  <ellipse cx="400" cy="300" rx="130" ry="20" fill="none" stroke="#8b5cf6" stroke-opacity="0.1" stroke-width="1"/>
  <rect x="240" y="270" width="320" height="8" rx="4" fill="#4a6cf7" opacity="0.05"/>
  <rect x="260" y="290" width="280" height="6" rx="3" fill="#8b5cf6" opacity="0.05"/>
  <rect x="280" y="310" width="240" height="5" rx="2.5" fill="#4a6cf7" opacity="0.05"/>
  <g fill="none" stroke="#4a6cf7" stroke-opacity="0.1" stroke-width="0.5">
    <rect x="50" y="50" width="700" height="350" rx="4"/>
    <rect x="60" y="60" width="120" height="30" rx="2"/>
  </g>
  <polygon points="600,350 680,380 640,410" fill="#8b5cf6" opacity="0.04"/>
  <polygon points="600,350 680,380 640,410" fill="none" stroke="#8b5cf6" stroke-opacity="0.1" stroke-width="0.5"/>
  <text x="40" y="430" font-family="sans-serif" font-size="14" fill="#4a6cf7" opacity="0.4">PLANET KRONOS — RING COLONY SCAN</text>
</svg>