<svg xmlns="http://www.w3.org/2000/svg" viewBox="0 0 800 450" width="800" height="450">
  <defs>
    <radialGradient id="sf-s1-n" cx="0.3" cy="0.5" r="0.4">
      <stop offset="0%" stop-color="#4a6cf7" stop-opacity="0.1"/>
      <stop offset="100%" stop-color="#0a0e12" stop-opacity="0"/>
    </radialGradient>
  </defs>
  <rect width="800" height="450" fill="#0a0e12"/>
  <rect width="800" height="450" fill="url(#sf-s1-n)"/>
  <g fill="white" opacity="0.6">
    <circle cx="80" cy="60" r="1"/><circle cx="200" cy="90" r="1.5"/>
    <circle cx="350" cy="40" r="1"/><circle cx="500" cy="70" r="1"/>
    <circle cx="650" cy="30" r="1.5"/><circle cx="730" cy="100" r="1"/>
    <circle cx="120" cy="180" r="1"/><circle cx="280" cy="220" r="1.5"/>
    <circle cx="580" cy="200" r="1"/><circle cx="720" cy="250" r="1"/>
    <circle cx="60" cy="350" r="1.5"/><circle cx="200" cy="400" r="1"/>
    <circle cx="450" cy="380" r="1"/><circle cx="600" cy="420" r="1.5"/>
    <circle cx="750" cy="360" r="1"/>
  </g>
  <g fill="none" stroke="#4a6cf7" stroke-opacity="0.15" stroke-width="0.5">
    <circle cx="150" cy="150" r="30"/><circle cx="150" cy="150" r="20"/>
    <circle cx="450" cy="130" r="25"/><circle cx="450" cy="130" r="15"/>
    <circle cx="650" cy="180" r="35"/><circle cx="650" cy="180" r="20"/>
    <circle cx="300" cy="300" r="20"/><circle cx="300" cy="300" r="10"/>
    <circle cx="550" cy="320" r="28"/><circle cx="550" cy="320" r="15"/>
    <circle cx="100" cy="280" r="22"/><circle cx="100" cy="280" r="12"/>
  </g>
  <g fill="#8b5cf6" opacity="0.2">
    <circle cx="150" cy="150" r="3"/><circle cx="450" cy="130" r="3"/>
    <circle cx="650" cy="180" r="3"/><circle cx="300" cy="300" r="3"/>
    <circle cx="550" cy="320" r="3"/><circle cx="100" cy="280" r="3"/>
  </g>
  <line x1="150" y1="150" x2="450" y2="130" stroke="#4a6cf7" stroke-opacity="0.08" stroke-width="0.5"/>
  <line x1="450" y1="130" x2="650" y2="180" stroke="#8b5cf6" stroke-opacity="0.08" stroke-width="0.5"/>
  <line x1="300" y1="300" x2="550" y2="320" stroke="#4a6cf7" stroke-opacity="0.08" stroke-width="0.5"/>
  <line x1="100" y1="280" x2="300" y2="300" stroke="#8b5cf6" stroke-opacity="0.08" stroke-width="0.5"/>
  <polygon points="680,350 760,350 720,300" fill="#4a6cf7" opacity="0.04"/>
  <polygon points="680,350 760,350 720,300" fill="none" stroke="#4a6cf7" stroke-opacity="0.12" stroke-width="1"/>
  <text x="40" y="430" font-family="sans-serif" font-size="14" fill="#4a6cf7" opacity="0.4">ASTEROID BELT — SECTOR OMEGA</text>
</svg>