<svg xmlns="http://www.w3.org/2000/svg" viewBox="0 0 800 450" width="800" height="450">
  <defs>
    <radialGradient id="sf-s3-h" cx="0.5" cy="0.6" r="0.5">
      <stop offset="0%" stop-color="#4a6cf7" stop-opacity="0.08"/>
      <stop offset="100%" stop-color="#0a0e12" stop-opacity="0"/>
    </radialGradient>
  </defs>
  <rect width="800" height="450" fill="#0a0e12"/>
  <rect width="800" height="450" fill="url(#sf-s3-h)"/>
  <g fill="white" opacity="0.7">
    <circle cx="100" cy="60" r="1.5"/><circle cx="220" cy="40" r="1"/>
    <circle cx="360" cy="80" r="1"/><circle cx="520" cy="30" r="2"/>
    <circle cx="680" cy="90" r="1"/><circle cx="40" cy="160" r="1"/>
    <circle cx="180" cy="280" r="1.5"/><circle cx="450" cy="380" r="1"/>
    <circle cx="600" cy="300" r="1"/><circle cx="740" cy="420" r="1.5"/>
    <circle cx="80" cy="380" r="1"/><circle cx="300" cy="410" r="1"/>
    <circle cx="480" cy="200" r="1.5"/><circle cx="760" cy="180" r="1"/>
    <circle cx="320" cy="150" r="1"/><circle cx="560" cy="140" r="1"/>
  </g>
  <g fill="none" stroke="#4a6cf7" stroke-opacity="0.2" stroke-width="0.5">
    <line x1="400" y1="80" x2="350" y2="160"/>
    <line x1="400" y1="80" x2="250" y2="200"/>
    <line x1="400" y1="80" x2="550" y2="160"/>
    <line x1="400" y1="80" x2="600" y2="220"/>
    <line x1="400" y1="80" x2="200" y2="280"/>
    <line x1="400" y1="80" x2="350" y2="300"/>
    <line x1="400" y1="80" x2="500" y2="320"/>
    <line x1="400" y1="80" x2="650" y2="300"/>
  </g>
  <circle cx="400" cy="80" r="4" fill="#8b5cf6" opacity="0.6"/>
  <g fill="#4a6cf7" opacity="0.3">
    <circle cx="350" cy="160" r="2"/><circle cx="250" cy="200" r="2"/>
    <circle cx="550" cy="160" r="2"/><circle cx="600" cy="220" r="2"/>
    <circle cx="200" cy="280" r="2"/><circle cx="350" cy="300" r="2"/>
    <circle cx="500" cy="320" r="2"/><circle cx="650" cy="300" r="2"/>
  </g>
  <g fill="none" stroke="#8b5cf6" stroke-opacity="0.08" stroke-width="0.5">
    <circle cx="350" cy="160" r="8"/><circle cx="250" cy="200" r="8"/>
    <circle cx="550" cy="160" r="8"/><circle cx="600" cy="220" r="8"/>
    <circle cx="200" cy="280" r="8"/><circle cx="500" cy="320" r="8"/>
  </g>
  <polygon points="100,400 180,370 140,430" fill="#8b5cf6" opacity="0.05"/>
  <polygon points="100,400 180,370 140,430" fill="none" stroke="#8b5cf6" stroke-opacity="0.12" stroke-width="0.5"/>
  <text x="40" y="430" font-family="sans-serif" font-size="14" fill="#4a6cf7" opacity="0.4">CONSTELLATION MAP — FLEET POSITIONS</text>
</svg>