<svg xmlns="http://www.w3.org/2000/svg" viewBox="0 0 800 450" width="800" height="450">
  <defs>
    <radialGradient id="sf-t-nebula" cx="0.5" cy="0.4" r="0.5">
      <stop offset="0%" stop-color="#4a6cf7" stop-opacity="0.15"/>
      <stop offset="100%" stop-color="#0a0e12" stop-opacity="0"/>
    </radialGradient>
  </defs>
  <rect width="800" height="450" fill="#0a0e12"/>
  <rect width="800" height="450" fill="url(#sf-t-nebula)"/>
  <g fill="white" opacity="0.8">
    <circle cx="100" cy="80" r="1.5"/><circle cx="250" cy="40" r="1"/>
    <circle cx="450" cy="100" r="1"/><circle cx="620" cy="50" r="2"/>
    <circle cx="750" cy="120" r="1"/><circle cx="180" cy="200" r="1"/>
    <circle cx="380" cy="180" r="1.5"/><circle cx="550" cy="220" r="1"/>
    <circle cx="700" cy="300" r="1.5"/><circle cx="80" cy="350" r="1"/>
    <circle cx="300" cy="400" r="1"/><circle cx="500" cy="370" r="1.5"/>
    <circle cx="660" cy="410" r="1"/><circle cx="120" cy="300" r="1.5"/>
    <circle cx="400" cy="300" r="1"/><circle cx="730" cy="200" r="1"/>
  </g>
  <circle cx="400" cy="200" r="100" fill="none" stroke="#4a6cf7" stroke-opacity="0.1" stroke-width="1"/>
  <circle cx="400" cy="200" r="60" fill="none" stroke="#8b5cf6" stroke-opacity="0.08" stroke-width="1"/>
  <circle cx="400" cy="200" r="20" fill="none" stroke="#4a6cf7" stroke-opacity="0.15" stroke-width="0.5"/>
  <ellipse cx="400" cy="200" rx="150" ry="40" fill="none" stroke="#4a6cf7" stroke-opacity="0.06" stroke-width="1"/>
  <ellipse cx="400" cy="200" rx="200" ry="60" fill="none" stroke="#8b5cf6" stroke-opacity="0.04" stroke-width="1"/>
  <g stroke="#4a6cf7" stroke-opacity="0.08" stroke-width="0.5">
    <line x1="0" y1="75" x2="800" y2="75"/>
    <line x1="0" y1="150" x2="800" y2="150"/>
    <line x1="0" y1="225" x2="800" y2="225"/>
    <line x1="0" y1="300" x2="800" y2="300"/>
    <line x1="0" y1="375" x2="800" y2="375"/>
  </g>
  <polygon points="370,185 370,215 400,200" fill="#4a6cf7" opacity="0.3"/>
  <circle cx="400" cy="200" r="25" fill="none" stroke="white" stroke-opacity="0.15" stroke-width="1"/>
  <text x="40" y="420" font-family="sans-serif" font-size="42" font-weight="bold" fill="#4a6cf7" opacity="0.85">STARFALL TACTICS</text>
  <text x="40" y="440" font-family="sans-serif" font-size="13" fill="#4a6cf7" opacity="0.4">GAMEPLAY TRAILER</text>
  <rect x="0" y="0" width="800" height="450" fill="none" stroke="#4a6cf7" stroke-opacity="0.08" stroke-width="1"/>
</svg>