<svg xmlns="http://www.w3.org/2000/svg" viewBox="0 0 800 450" width="800" height="450">
  <rect width="800" height="450" fill="#0a0e12"/>
  <g fill="none" stroke="#f59e0b" stroke-opacity="0.07" stroke-width="0.6">
    <polygon points="100,100 200,50 300,100 200,150"/>
    <polygon points="300,100 400,50 500,100 400,150"/>
    <polygon points="500,100 600,50 700,100 600,150"/>
  </g>
  <g fill="none" stroke="#f59e0b" stroke-opacity="0.05" stroke-width="0.5">
    <polygon points="200,200 300,150 400,200 300,250"/>
    <polygon points="400,200 500,150 600,200 500,250"/>
  </g>
  <g fill="none" stroke="#f59e0b" stroke-opacity="0.04" stroke-width="0.4">
    <polygon points="150,300 250,250 350,300 250,350"/>
    <polygon points="350,300 450,250 550,300 450,350"/>
    <polygon points="550,300 650,250 750,300 650,350"/>
  </g>
  <g stroke="#f59e0b" stroke-opacity="0.03" stroke-width="0.4">
    <line x1="0" y1="50" x2="800" y2="50"/>
    <line x1="0" y1="150" x2="800" y2="150"/>
    <line x1="0" y1="250" x2="800" y2="250"/>
    <line x1="0" y1="350" x2="800" y2="350"/>
  </g>
  <g fill="#f59e0b" opacity="0.03">
    <circle cx="200" cy="100" r="2"/>
    <circle cx="400" cy="100" r="2"/>
    <circle cx="600" cy="100" r="2"/>
    <circle cx="300" cy="200" r="2"/>
    <circle cx="500" cy="200" r="2"/>
    <circle cx="250" cy="300" r="2"/>
    <circle cx="450" cy="300" r="2"/>
    <circle cx="650" cy="300" r="2"/>
  </g>
  <rect x="660" y="370" width="80" height="40" rx="3" fill="none" stroke="#f59e0b" stroke-opacity="0.08" stroke-width="0.6"/>
  <line x1="660" y1="390" x2="740" y2="390" stroke="#f59e0b" stroke-opacity="0.08" stroke-width="0.6"/>
  <text x="40" y="430" font-family="serif" font-size="14" fill="#f59e0b" opacity="0.4">PAPER TESSELATION — FRACTAL HALL</text>
</svg>