<svg xmlns="http://www.w3.org/2000/svg" viewBox="0 0 800 450" width="800" height="450">
  <rect width="800" height="450" fill="#0a0e12"/>
  <g fill="#22c55e" opacity="0.04">
    <polygon points="0,350 200,220 400,350"/>
    <polygon points="100,380 350,250 600,380"/>
    <polygon points="200,410 500,280 800,410"/>
    <polygon points="300,430 600,310 800,430"/>
  </g>
  <g fill="none" stroke="#22c55e" stroke-opacity="0.08" stroke-width="0.8">
    <polygon points="0,350 200,220 400,350"/>
    <polygon points="100,380 350,250 600,380"/>
    <polygon points="200,410 500,280 800,410"/>
    <polygon points="300,430 600,310 800,430"/>
  </g>
  <circle cx="600" cy="100" r="25" fill="#eab308" opacity="0.1"/>
  <circle cx="600" cy="100" r="18" fill="#eab308" opacity="0.07"/>
  <g fill="none" stroke="#22c55e" stroke-opacity="0.1" stroke-width="0.5">
    <circle cx="100" cy="200" r="15"/><circle cx="100" cy="200" r="8"/>
    <circle cx="300" cy="180" r="12"/><circle cx="300" cy="180" r="6"/>
    <circle cx="500" cy="220" r="18"/><circle cx="500" cy="220" r="10"/>
    <circle cx="700" cy="190" r="14"/><circle cx="700" cy="190" r="7"/>
  </g>
  <g fill="#22c55e" opacity="0.06">
    <circle cx="100" cy="200" r="3"/><circle cx="300" cy="180" r="2.5"/>
    <circle cx="500" cy="220" r="3"/><circle cx="700" cy="190" r="2.5"/>
  </g>
  <g stroke="#22c55e" stroke-opacity="0.05" stroke-width="0.5">
    <line x1="0" y1="60" x2="800" y2="60"/>
    <line x1="0" y1="120" x2="800" y2="120"/>
  </g>
  <polygon points="370,185 370,215 400,200" fill="#22c55e" opacity="0.2"/>
  <circle cx="400" cy="200" r="25" fill="none" stroke="white" stroke-opacity="0.1" stroke-width="1"/>
  <text x="40" y="420" font-family="serif" font-size="42" font-weight="bold" fill="#22c55e" opacity="0.85">MOSS BOUND</text>
  <text x="40" y="440" font-family="serif" font-size="13" fill="#22c55e" opacity="0.4">GAMEPLAY TRAILER</text>
</svg>